<?xml version="1.0" encoding="utf-8"?>
<!-- Generator: Adobe Illustrator 23.0.3, SVG Export Plug-In . SVG Version: 6.00 Build 0)  -->
<svg version="1.1" id="Layer_3" xmlns="http://www.w3.org/2000/svg" xmlns:xlink="http://www.w3.org/1999/xlink" x="0px" y="0px"
	 viewBox="0 0 51 52" style="enable-background:new 0 0 51 52;" xml:space="preserve">
<style type="text/css">
	.st0{fill:#FFFAFA;}
</style>
<path class="st0" d="M15.8,32.7c-2.4,0-4.4,1.9-4.4,4.2c0,2.3,2,4.2,4.4,4.2c2.4,0,4.4-1.9,4.4-4.2C20.2,34.6,18.2,32.7,15.8,32.7z
	 M15.8,38.9c-1.2,0-2.2-0.9-2.2-2.1c0-1.1,1-2.1,2.2-2.1c1.2,0,2.2,0.9,2.2,2.1C18,38,17,38.9,15.8,38.9z M12,32.7H2.2
	c-0.4,0-0.7,0.3-0.7,0.7v2c0,0.4,0.3,0.7,0.7,0.7h7.9C10.3,34.7,11,33.5,12,32.7z M38.8,32.7c-2.4,0-4.4,1.9-4.4,4.2
	c0,2.3,2,4.2,4.4,4.2c2.4,0,4.4-1.9,4.4-4.2C43.2,34.6,41.3,32.7,38.8,32.7z M38.8,38.9c-1.2,0-2.2-0.9-2.2-2.1c0-1.1,1-2.1,2.2-2.1
	c1.2,0,2.2,0.9,2.2,2.1C41,38,40,38.9,38.8,38.9z M50.3,32.7h-1.7v-9.1c0-1.1-0.3-2.1-1-3l-4.3-6c-1-1.5-2.8-2.3-4.7-2.3h-6.7
	c-0.8,0-1.4,0.6-1.4,1.3v19.1H19.6c1,0.8,1.7,2,2,3.4h11.5c0.4-2.6,2.8-4.7,5.7-4.7c2.9,0,5.3,2,5.7,4.7h5.7c0.4,0,0.7-0.3,0.7-0.7
	v-2C51,33,50.7,32.7,50.3,32.7z M43.3,21.8h-8.8c-0.4,0-0.7-0.3-0.7-0.7v-4.6c0-0.4,0.3-0.7,0.7-0.7h5.4c0.2,0,0.5,0.1,0.6,0.3
	l3.4,4.6C44.2,21.2,43.8,21.8,43.3,21.8z M27.2,31.4H2.4C1.6,31.4,1,30.8,1,30v-6c0-0.7,0.6-1.3,1.4-1.3h24.7c0.8,0,1.4,0.6,1.4,1.3
	v6C28.6,30.8,27.9,31.4,27.2,31.4z M12.3,20.7H2.4c-0.8,0-1.4-0.6-1.4-1.3v-6C1,12.6,1.6,12,2.4,12h9.9c0.8,0,1.4,0.6,1.4,1.3v6
	C13.7,20.1,13.1,20.7,12.3,20.7z M27.2,20.7h-9.9c-0.8,0-1.4-0.6-1.4-1.3v-6c0-0.7,0.6-1.3,1.4-1.3h9.9c0.8,0,1.4,0.6,1.4,1.3v6
	C28.6,20.1,27.9,20.7,27.2,20.7z"/>
</svg>
