<?xml version="1.0" encoding="utf-8"?>
<!-- Generator: Adobe Illustrator 23.0.3, SVG Export Plug-In . SVG Version: 6.00 Build 0)  -->
<svg version="1.1" id="Layer_3" xmlns="http://www.w3.org/2000/svg" xmlns:xlink="http://www.w3.org/1999/xlink" x="0px" y="0px"
	 viewBox="0 0 51 52" style="enable-background:new 0 0 51 52;" xml:space="preserve">
<style type="text/css">
	.st0{fill:#FFFFFF;}
</style>
<g id="Buy">
	<rect x="46.6" y="2" class="st0" width="3.4" height="8.6"/>
	<path class="st0" d="M31.1,5.4H10.6v12h24V9.2L33.8,10c-1,1-2.6,1-3.6,0.1s-1-2.6-0.1-3.6c0,0,0,0,0.1-0.1L31.1,5.4z M17.4,12.3
		h-1.7c-0.5,0-0.9-0.4-0.9-0.9c0-0.5,0.4-0.9,0.9-0.9h1.7c0.5,0,0.9,0.4,0.9,0.9C18.3,11.9,17.9,12.3,17.4,12.3z M22.6,10.6
		c1.4,0,2.6,1.1,2.6,2.6c0,1.1-0.7,2.1-1.7,2.4v1h-1.7v-1c-1-0.4-1.7-1.3-1.7-2.4h1.7c0,0.5,0.4,0.9,0.9,0.9s0.9-0.4,0.9-0.9
		c0-0.5-0.4-0.9-0.9-0.9c-1.4,0-2.6-1.1-2.6-2.6c0-1.1,0.7-2.1,1.7-2.4v-1h1.7v1c1,0.4,1.7,1.3,1.7,2.4h-1.7c0-0.5-0.4-0.9-0.9-0.9
		s-0.9,0.4-0.9,0.9S22.1,10.6,22.6,10.6z M29.4,10.6c0.5,0,0.9,0.4,0.9,0.9c0,0.5-0.4,0.9-0.9,0.9h-1.7c-0.5,0-0.9-0.4-0.9-0.9
		c0-0.5,0.4-0.9,0.9-0.9H29.4z"/>
	<path class="st0" d="M42.6,6.2l-0.9,0.3c-1.2,0.4-2.6,0.4-3.8,0l-0.4-0.1l-1.1,1.1V10l0.6,0.2c1.7,0.7,3.7,0.6,5.3-0.4L43.6,9
		c0.1-0.1,0.3-0.1,0.4-0.1l0.9,0V3.4l-2.6-1.3C42.1,2,42,2,41.9,2H29.3c-0.2,0-0.4,0.1-0.5,0.2l-1.9,1.5h5.9l0.7-0.7
		c0.3-0.3,0.9-0.3,1.2,0c0.3,0.3,0.3,0.9,0,1.2l-3.3,3.3c-0.3,0.3-0.3,0.9,0,1.2c0.3,0.3,0.9,0.3,1.2,0l2.3-2.3l0,0l1.7-1.7
		c0.2-0.2,0.6-0.3,0.9-0.2l0.9,0.3c0.9,0.3,1.8,0.3,2.7,0L42,4.6c0.4-0.1,0.9,0.1,1.1,0.5C43.2,5.6,43,6.1,42.6,6.2L42.6,6.2z"/>
	<path class="st0" d="M7.1,48.7l1.8,1.2C9,49.9,9.2,50,9.4,50h12.7c0.1,0,0.3,0,0.4-0.1L34,43.3c0.3-0.2,0.4-0.4,0.4-0.7
		c0-0.1,0-0.3-0.1-0.4c-0.1-0.2-0.3-0.3-0.5-0.4c-0.2-0.1-0.4,0-0.6,0.1L26,45.9c-0.5,0.4-1.1,0.7-1.7,0.7h-5.1
		c-0.5,0-0.9-0.4-0.9-0.9c0-0.5,0.4-0.9,0.9-0.9h5.1c0.5,0,0.9-0.4,0.9-0.9c0-0.5-0.4-0.9-0.9-0.9h-6.9c-0.2,0-0.3,0-0.5-0.1
		l-0.4-0.3c-2.6-1.7-6-1.7-8.6,0L7.6,43c-0.1,0.1-0.3,0.1-0.5,0.1V48.7z"/>
	<rect x="2" y="41.4" class="st0" width="3.4" height="8.6"/>
	<path class="st0" d="M12.3,24.3V38h20.6V24.3h-7.7v4.3c0,0.5-0.4,0.9-0.9,0.9h-3.4c-0.5,0-0.9-0.4-0.9-0.9v-4.3H12.3z M17.4,37.1
		H14c-0.5,0-0.9-0.4-0.9-0.9s0.4-0.9,0.9-0.9h3.4c0.5,0,0.9,0.4,0.9,0.9S17.9,37.1,17.4,37.1z M17.4,34.6H14c-0.5,0-0.9-0.4-0.9-0.9
		c0-0.5,0.4-0.9,0.9-0.9h3.4c0.5,0,0.9,0.4,0.9,0.9C18.3,34.2,17.9,34.6,17.4,34.6z M20.9,37.1H20c-0.5,0-0.9-0.4-0.9-0.9
		s0.4-0.9,0.9-0.9h0.9c0.5,0,0.9,0.4,0.9,0.9S21.3,37.1,20.9,37.1z M20.9,32.9c0.5,0,0.9,0.4,0.9,0.9c0,0.5-0.4,0.9-0.9,0.9H20
		c-0.5,0-0.9-0.4-0.9-0.9c0-0.5,0.4-0.9,0.9-0.9H20.9z"/>
	<rect x="21.7" y="24.3" class="st0" width="1.7" height="3.4"/>
</g>
</svg>
